<?xml version="1.0" encoding="UTF-8" standalone="no"?>
<!DOCTYPE svg PUBLIC "-//W3C//DTD SVG 1.1//EN"
 "http://www.w3.org/Graphics/SVG/1.1/DTD/svg11.dtd">
<!-- Generated by graphviz version 2.38.0 (20140413.2041)
 -->
<!-- Title: Functions Pages: 1 -->
<svg width="306pt" height="398pt"
 viewBox="0.00 0.00 305.50 398.00" xmlns="http://www.w3.org/2000/svg" xmlns:xlink="http://www.w3.org/1999/xlink">
<g id="graph0" class="graph" transform="scale(1 1) rotate(0) translate(4 394)">
<title>Functions</title>
<polygon fill="white" stroke="none" points="-4,4 -4,-394 301.5,-394 301.5,4 -4,4"/>
<!-- Settings -->
<g id="node1" class="node"><title>Settings</title>
<polygon fill="#eff3ff" stroke="black" points="76.5,-285 8.5,-285 8.5,-249 82.5,-249 82.5,-279 76.5,-285"/>
<polyline fill="none" stroke="black" points="76.5,-285 76.5,-279 "/>
<polyline fill="none" stroke="black" points="82.5,-279 76.5,-279 "/>
<text text-anchor="middle" x="45.5" y="-263.3" font-family="Segoe UI" font-size="14.00">Settings</text>
</g>
<!-- httpTrigger -->
<g id="node2" class="node"><title>httpTrigger</title>
<polygon fill="white" stroke="none" points="277,-390 0,-390 0,-332 277,-332 277,-390"/>
<polygon fill="none" stroke="black" points="8.5,-359 8.5,-386 269.5,-386 269.5,-359 8.5,-359"/>
<text text-anchor="start" x="90.5" y="-368.8" font-family="Segoe UI" font-size="14.00">HTTP Triggers</text>
<polygon fill="#bdd7e7" stroke="none" points="8.5,-336 8.5,-359 91.5,-359 91.5,-336 8.5,-336"/>
<polygon fill="none" stroke="black" points="8.5,-336 8.5,-359 91.5,-359 91.5,-336 8.5,-336"/>
<text text-anchor="start" x="14.5" y="-346" font-family="Segoe UI" font-weight="bold" font-size="10.00">/api/Settings</text>
<polygon fill="#bdd7e7" stroke="none" points="91.5,-336 91.5,-359 269.5,-359 269.5,-336 91.5,-336"/>
<polygon fill="none" stroke="black" points="91.5,-336 91.5,-359 269.5,-359 269.5,-336 91.5,-336"/>
<text text-anchor="start" x="97.5" y="-346" font-family="Segoe UI" font-weight="bold" font-size="10.00">/api/RequestImageProcessing</text>
</g>
<!-- httpTrigger&#45;&gt;Settings -->
<g id="edge1" class="edge"><title>httpTrigger:Settings&#45;&gt;Settings</title>
<path fill="none" stroke="black" d="M49.5,-335C49.5,-321.842 48.7217,-307.255 47.8518,-295.061"/>
<polygon fill="black" stroke="black" points="47.0809,-285.057 52.3359,-294.682 47.4651,-290.042 47.8492,-295.027 47.8492,-295.027 47.8492,-295.027 47.4651,-290.042 43.3625,-295.373 47.0809,-285.057 47.0809,-285.057"/>
<text text-anchor="middle" x="70" y="-306" font-family="Segoe UI" font-size="10.00"> &#160;&#160;Trigger</text>
</g>
<!-- RequestImageProcessing -->
<g id="node3" class="node"><title>RequestImageProcessing</title>
<polygon fill="#eff3ff" stroke="black" points="282,-285 101,-285 101,-249 288,-249 288,-279 282,-285"/>
<polyline fill="none" stroke="black" points="282,-285 282,-279 "/>
<polyline fill="none" stroke="black" points="288,-279 282,-279 "/>
<text text-anchor="middle" x="194.5" y="-263.3" font-family="Segoe UI" font-size="14.00">RequestImageProcessing</text>
</g>
<!-- httpTrigger&#45;&gt;RequestImageProcessing -->
<g id="edge2" class="edge"><title>httpTrigger:RequestImageProcessing&#45;&gt;RequestImageProcessing</title>
<path fill="none" stroke="black" d="M180.5,-335C180.5,-321.673 183.187,-307.165 186.206,-295.067"/>
<polygon fill="black" stroke="black" points="188.886,-285.147 190.622,-295.975 187.582,-289.974 186.278,-294.801 186.278,-294.801 186.278,-294.801 187.582,-289.974 181.934,-293.627 188.886,-285.147 188.886,-285.147"/>
<text text-anchor="middle" x="204" y="-306" font-family="Segoe UI" font-size="10.00"> &#160;&#160;Trigger</text>
</g>
<!-- Queue &#45; %input&#45;queue% &#45; AzureWebJobsStorage -->
<g id="node4" class="node"><title>Queue &#45; %input&#45;queue% &#45; AzureWebJobsStorage</title>
<polygon fill="#bdd7e7" stroke="black" points="225.5,-202 163.5,-202 163.5,-166 225.5,-166 225.5,-202"/>
<text text-anchor="middle" x="194.5" y="-180.3" font-family="Segoe UI" font-size="14.00" fill="white">Queue</text>
</g>
<!-- RequestImageProcessing&#45;&gt;Queue &#45; %input&#45;queue% &#45; AzureWebJobsStorage -->
<g id="edge3" class="edge"><title>RequestImageProcessing&#45;&gt;Queue &#45; %input&#45;queue% &#45; AzureWebJobsStorage</title>
<path fill="none" stroke="black" d="M194.5,-248.822C194.5,-238.19 194.5,-224.306 194.5,-212.204"/>
<polygon fill="black" stroke="black" points="190.5,-202.153 198.5,-202.153 198.5,-210.153 190.5,-210.153 190.5,-202.153"/>
<polyline fill="none" stroke="black" points="194.5,-210.153 194.5,-212.153 "/>
<text text-anchor="middle" x="216" y="-223" font-family="Segoe UI" font-size="10.00"> &#160;&#160;Output</text>
</g>
<!-- GenerateCard -->
<g id="node5" class="node"><title>GenerateCard</title>
<polygon fill="#eff3ff" stroke="black" points="286.5,-119 178.5,-119 178.5,-83 292.5,-83 292.5,-113 286.5,-119"/>
<polyline fill="none" stroke="black" points="286.5,-119 286.5,-113 "/>
<polyline fill="none" stroke="black" points="292.5,-113 286.5,-113 "/>
<text text-anchor="middle" x="235.5" y="-97.3" font-family="Segoe UI" font-size="14.00">GenerateCard</text>
</g>
<!-- Queue &#45; %input&#45;queue% &#45; AzureWebJobsStorage&#45;&gt;GenerateCard -->
<g id="edge4" class="edge"><title>Queue &#45; %input&#45;queue% &#45; AzureWebJobsStorage&#45;&gt;GenerateCard</title>
<path fill="none" stroke="black" d="M196.645,-165.719C198.237,-156.789 200.948,-145.924 205.5,-137 207.2,-133.667 209.28,-130.384 211.543,-127.244"/>
<polygon fill="black" stroke="black" points="217.832,-119.331 215.134,-129.959 214.721,-123.245 211.611,-127.16 211.611,-127.16 211.611,-127.16 214.721,-123.245 208.088,-124.36 217.832,-119.331 217.832,-119.331"/>
<text text-anchor="middle" x="226" y="-140" font-family="Segoe UI" font-size="10.00"> &#160;&#160;Trigger</text>
</g>
<!-- Blob &#45; %output&#45;container%/{BlobName} &#45; AzureWebJobsStorage -->
<g id="node7" class="node"><title>Blob &#45; %output&#45;container%/{BlobName} &#45; AzureWebJobsStorage</title>
<polygon fill="#2171b5" stroke="black" points="262.5,-36 208.5,-36 208.5,-0 262.5,-0 262.5,-36"/>
<text text-anchor="middle" x="235.5" y="-14.3" font-family="Segoe UI" font-size="14.00" fill="white">Blob</text>
</g>
<!-- GenerateCard&#45;&gt;Blob &#45; %output&#45;container%/{BlobName} &#45; AzureWebJobsStorage -->
<g id="edge6" class="edge"><title>GenerateCard&#45;&gt;Blob &#45; %output&#45;container%/{BlobName} &#45; AzureWebJobsStorage</title>
<path fill="none" stroke="black" d="M235.5,-82.822C235.5,-72.1903 235.5,-58.306 235.5,-46.2035"/>
<polygon fill="black" stroke="black" points="231.5,-36.1533 239.5,-36.1532 239.5,-44.1532 231.5,-44.1533 231.5,-36.1533"/>
<polyline fill="none" stroke="black" points="235.5,-44.1533 235.5,-46.1533 "/>
<text text-anchor="middle" x="257" y="-57" font-family="Segoe UI" font-size="10.00"> &#160;&#160;Output</text>
</g>
<!-- Blob &#45; %input&#45;container%/{BlobName} &#45; AzureWebJobsStorage -->
<g id="node6" class="node"><title>Blob &#45; %input&#45;container%/{BlobName} &#45; AzureWebJobsStorage</title>
<polygon fill="#6baed6" stroke="black" points="297.5,-202 243.5,-202 243.5,-166 297.5,-166 297.5,-202"/>
<text text-anchor="middle" x="270.5" y="-180.3" font-family="Segoe UI" font-size="14.00">Blob</text>
</g>
<!-- Blob &#45; %input&#45;container%/{BlobName} &#45; AzureWebJobsStorage&#45;&gt;GenerateCard -->
<g id="edge5" class="edge"><title>Blob &#45; %input&#45;container%/{BlobName} &#45; AzureWebJobsStorage&#45;&gt;GenerateCard</title>
<path fill="none" stroke="black" d="M263.077,-165.822C258.159,-154.439 251.629,-139.326 246.158,-126.665"/>
<ellipse fill="black" stroke="black" cx="244.499" cy="-122.825" rx="4.00002" ry="4.00002"/>
<text text-anchor="middle" x="271.5" y="-140" font-family="Segoe UI" font-size="10.00"> &#160;&#160;Input</text>
</g>
</g>
</svg>
